<svg width="512" height="512" viewBox="0 0 512 512" xmlns="http://www.w3.org/2000/svg">
  <circle cx="256" cy="256" r="248" fill="#FFD700" stroke="#1a1a1a" stroke-width="12"/>
  <circle cx="256" cy="256" r="248" fill="none" stroke="#EF3340" stroke-width="6" stroke-dasharray="20 14"/>
  <ellipse cx="256" cy="430" rx="210" ry="28" fill="#3a3a3a" opacity="0.25"/>
  <g stroke="#1a1a1a" stroke-width="9" fill="none" stroke-linecap="round" stroke-linejoin="round">
    <circle cx="160" cy="368" r="62" fill="#fff"/>
    <circle cx="372" cy="368" r="62" fill="#fff"/>
    <path d="M160 368 L232 300 L300 368 Z"/>
    <path d="M232 300 L268 232"/>
    <path d="M300 368 L268 232"/>
    <path d="M232 300 L210 256"/>
    <path d="M268 232 L300 222"/>
  </g>
  <g stroke="#bbb" stroke-width="3">
    <line x1="160" y1="306" x2="160" y2="430"/>
    <line x1="98" y1="368" x2="222" y2="368"/>
    <line x1="116" y1="324" x2="204" y2="412"/>
    <line x1="116" y1="412" x2="204" y2="324"/>
    <line x1="372" y1="306" x2="372" y2="430"/>
    <line x1="310" y1="368" x2="434" y2="368"/>
    <line x1="328" y1="324" x2="416" y2="412"/>
    <line x1="328" y1="412" x2="416" y2="324"/>
  </g>
  <circle cx="160" cy="368" r="9" fill="#1a1a1a"/>
  <circle cx="372" cy="368" r="9" fill="#1a1a1a"/>
  <circle cx="232" cy="368" r="14" fill="#1a1a1a"/>
  <line x1="232" y1="368" x2="248" y2="392" stroke="#1a1a1a" stroke-width="7" stroke-linecap="round"/>
  <ellipse cx="206" cy="252" rx="26" ry="9" fill="#1a1a1a"/>
  <path d="M232 250 L240 320 L248 388" stroke="#C8821E" stroke-width="20" fill="none" stroke-linecap="round"/>
  <path d="M210 250 Q230 200 282 206 L300 230 Q280 270 240 268 Z" fill="#EF3340"/>
  <path d="M286 220 L308 224" stroke="#C8821E" stroke-width="18" fill="none" stroke-linecap="round"/>
  <circle cx="310" cy="224" r="9" fill="#C8821E"/>
  <circle cx="300" cy="160" r="58" fill="#E8A33D"/>
  <g fill="#C8821E">
    <circle cx="300" cy="106" r="15"/>
    <circle cx="338" cy="120" r="15"/>
    <circle cx="356" cy="158" r="15"/>
    <circle cx="346" cy="198" r="15"/>
    <circle cx="262" cy="120" r="15"/>
    <circle cx="244" cy="158" r="15"/>
    <circle cx="256" cy="198" r="15"/>
    <circle cx="300" cy="212" r="15"/>
  </g>
  <circle cx="300" cy="162" r="44" fill="#F4C063"/>
  <ellipse cx="300" cy="182" rx="24" ry="18" fill="#FBE3B0"/>
  <circle cx="270" cy="128" r="13" fill="#E8A33D"/>
  <circle cx="330" cy="128" r="13" fill="#E8A33D"/>
  <circle cx="270" cy="128" r="6" fill="#C8821E"/>
  <circle cx="330" cy="128" r="6" fill="#C8821E"/>
  <circle cx="285" cy="156" r="6" fill="#1a1a1a"/>
  <circle cx="315" cy="156" r="6" fill="#1a1a1a"/>
  <path d="M294 174 L306 174 L300 182 Z" fill="#1a1a1a"/>
  <path d="M300 182 Q288 192 282 186 M300 182 Q312 192 318 186" stroke="#1a1a1a" stroke-width="3" fill="none" stroke-linecap="round"/>
  <path d="M214 254 Q170 250 168 296" stroke="#C8821E" stroke-width="11" fill="none" stroke-linecap="round"/>
  <circle cx="166" cy="304" r="14" fill="#E8A33D"/>
</svg>
